<svg width="32" height="32" viewBox="0 0 32 32" fill="none" xmlns="http://www.w3.org/2000/svg">
<path d="M29.3 31.75L18.275 20.725C17.4 21.425 16.3937 21.9792 15.2562 22.3875C14.1187 22.7958 12.9083 23 11.625 23C8.44583 23 5.75521 21.899 3.55312 19.6969C1.35104 17.4948 0.25 14.8042 0.25 11.625C0.25 8.44583 1.35104 5.75521 3.55312 3.55312C5.75521 1.35104 8.44583 0.25 11.625 0.25C14.8042 0.25 17.4948 1.35104 19.6969 3.55312C21.899 5.75521 23 8.44583 23 11.625C23 12.9083 22.7958 14.1187 22.3875 15.2562C21.9792 16.3937 21.425 17.4 20.725 18.275L31.75 29.3L29.3 31.75ZM11.625 19.5C13.8125 19.5 15.6719 18.7344 17.2031 17.2031C18.7344 15.6719 19.5 13.8125 19.5 11.625C19.5 9.4375 18.7344 7.57812 17.2031 6.04688C15.6719 4.51562 13.8125 3.75 11.625 3.75C9.4375 3.75 7.57812 4.51562 6.04688 6.04688C4.51562 7.57812 3.75 9.4375 3.75 11.625C3.75 13.8125 4.51562 15.6719 6.04688 17.2031C7.57812 18.7344 9.4375 19.5 11.625 19.5Z" fill="white"/>
</svg>
